<svg width="24" height="24" viewBox="0 0 24 24" fill="none" xmlns="http://www.w3.org/2000/svg">
<path fill-rule="evenodd" clip-rule="evenodd" d="M15.1062 16.5677C13.2491 18.0517 10.8942 18.7681 8.52537 18.57C6.15649 18.3718 3.9534 17.2741 2.36857 15.5022C0.783742 13.7303 -0.0625167 11.4188 0.00360196 9.04247C0.0697207 6.6661 1.0432 4.40525 2.7241 2.72425C4.405 1.04326 6.66572 0.0697247 9.04195 0.00360217C11.4182 -0.0625203 13.7295 0.783787 15.5013 2.36871C17.2731 3.95363 18.3708 6.15684 18.5689 8.52586C18.7671 10.8949 18.0506 13.2498 16.5668 15.1071L23.6711 22.2104C23.7726 22.3051 23.8541 22.4192 23.9105 22.5459C23.967 22.6727 23.9974 22.8095 23.9998 22.9483C24.0023 23.0871 23.9768 23.2249 23.9248 23.3536C23.8728 23.4823 23.7955 23.5992 23.6973 23.6973C23.5992 23.7954 23.4823 23.8728 23.3536 23.9248C23.2249 23.9768 23.0871 24.0023 22.9484 23.9998C22.8096 23.9974 22.6728 23.967 22.546 23.9105C22.4192 23.854 22.3052 23.7726 22.2105 23.6711L15.1062 16.5677ZM4.18523 14.4154C3.17392 13.4039 2.48514 12.1153 2.20593 10.7125C1.92672 9.30967 2.06961 7.85555 2.61654 6.53391C3.16347 5.21227 4.08989 4.08243 5.27872 3.28718C6.46756 2.49194 7.86544 2.06698 9.29571 2.06602C10.726 2.06505 12.1244 2.48813 13.3143 3.28177C14.5042 4.07542 15.4322 5.20401 15.9809 6.52491C16.5296 7.84582 16.6744 9.29975 16.3971 10.703C16.1198 12.1062 15.4328 13.3957 14.4228 14.4085L14.4159 14.4154L14.409 14.4209C13.052 15.7749 11.213 16.5348 9.29599 16.5338C7.37902 16.5328 5.54084 15.7708 4.18523 14.4154Z" fill="#7D7D75"/>
</svg>
