<svg width="32" height="32" viewBox="0 0 32 32" fill="none" xmlns="http://www.w3.org/2000/svg">
<path d="M15.9334 23.9998C16.4001 23.9998 16.7947 23.8385 17.1174 23.5158C17.4401 23.1932 17.601 22.7989 17.6001 22.3332C17.6001 21.8665 17.4392 21.4718 17.1174 21.1492C16.7956 20.8265 16.401 20.6656 15.9334 20.6665C15.4667 20.6665 15.0725 20.8278 14.7507 21.1505C14.429 21.4732 14.2676 21.8674 14.2667 22.3332C14.2667 22.7998 14.4281 23.1945 14.7507 23.5172C15.0734 23.8398 15.4676 24.0007 15.9334 23.9998ZM14.7334 18.8665H17.2001C17.2001 18.1332 17.2836 17.5554 17.4507 17.1332C17.6179 16.7109 18.0899 16.1332 18.8667 15.3998C19.4445 14.8221 19.9001 14.2718 20.2334 13.7492C20.5667 13.2265 20.7334 12.5989 20.7334 11.8665C20.7334 10.6221 20.2779 9.6665 19.3667 8.99984C18.4556 8.33317 17.3779 7.99984 16.1334 7.99984C14.8667 7.99984 13.8392 8.33317 13.0507 8.99984C12.2623 9.6665 11.7121 10.4665 11.4001 11.3998L13.6001 12.2665C13.7112 11.8665 13.9614 11.4332 14.3507 10.9665C14.7401 10.4998 15.3343 10.2665 16.1334 10.2665C16.8445 10.2665 17.3779 10.4612 17.7334 10.8505C18.089 11.2398 18.2667 11.6674 18.2667 12.1332C18.2667 12.5776 18.1334 12.9945 17.8667 13.3838C17.6001 13.7732 17.2667 14.1341 16.8667 14.4665C15.889 15.3332 15.289 15.9887 15.0667 16.4332C14.8445 16.8776 14.7334 17.6887 14.7334 18.8665ZM16.0001 29.3332C14.1556 29.3332 12.4223 28.9834 10.8001 28.2838C9.17786 27.5843 7.76675 26.6341 6.56675 25.4332C5.36675 24.2332 4.41697 22.8221 3.71741 21.1998C3.01786 19.5776 2.66764 17.8443 2.66675 15.9998C2.66675 14.1554 3.01697 12.4221 3.71741 10.7998C4.41786 9.17762 5.36764 7.7665 6.56675 6.5665C7.76675 5.3665 9.17786 4.41673 10.8001 3.71717C12.4223 3.01762 14.1556 2.66739 16.0001 2.6665C17.8445 2.6665 19.5779 3.01673 21.2001 3.71717C22.8223 4.41762 24.2334 5.36739 25.4334 6.5665C26.6334 7.7665 27.5836 9.17762 28.2841 10.7998C28.9845 12.4221 29.3343 14.1554 29.3334 15.9998C29.3334 17.8443 28.9832 19.5776 28.2827 21.1998C27.5823 22.8221 26.6325 24.2332 25.4334 25.4332C24.2334 26.6332 22.8223 27.5834 21.2001 28.2838C19.5779 28.9843 17.8445 29.3341 16.0001 29.3332ZM16.0001 26.6665C18.9779 26.6665 21.5001 25.6332 23.5667 23.5665C25.6334 21.4998 26.6667 18.9776 26.6667 15.9998C26.6667 13.0221 25.6334 10.4998 23.5667 8.43317C21.5001 6.3665 18.9779 5.33317 16.0001 5.33317C13.0223 5.33317 10.5001 6.3665 8.43341 8.43317C6.36675 10.4998 5.33341 13.0221 5.33341 15.9998C5.33341 18.9776 6.36675 21.4998 8.43341 23.5665C10.5001 25.6332 13.0223 26.6665 16.0001 26.6665Z" fill="#221203"/>
</svg>
