<svg width="183" height="40" viewBox="0 0 183 40" fill="none" xmlns="http://www.w3.org/2000/svg">
<path d="M15.192 15.484V35H12.644V26.152H2.704V35H0.156V15.484H2.704V24.052H12.644V15.484H15.192ZM26.2347 35.252C24.7974 35.252 23.4907 34.9253 22.3147 34.272C21.1574 33.6187 20.2427 32.6947 19.5707 31.5C18.9174 30.2867 18.5907 28.8867 18.5907 27.3C18.5907 25.732 18.9267 24.3507 19.5987 23.156C20.2894 21.9427 21.2227 21.0187 22.3987 20.384C23.5747 19.7307 24.8907 19.404 26.3467 19.404C27.8027 19.404 29.1187 19.7307 30.2947 20.384C31.4707 21.0187 32.3947 21.9333 33.0667 23.128C33.7574 24.3227 34.1027 25.7133 34.1027 27.3C34.1027 28.8867 33.7481 30.2867 33.0387 31.5C32.3481 32.6947 31.4054 33.6187 30.2107 34.272C29.0161 34.9253 27.6907 35.252 26.2347 35.252ZM26.2347 33.012C27.1494 33.012 28.0081 32.7973 28.8107 32.368C29.6134 31.9387 30.2574 31.2947 30.7427 30.436C31.2467 29.5773 31.4987 28.532 31.4987 27.3C31.4987 26.068 31.2561 25.0227 30.7707 24.164C30.2854 23.3053 29.6507 22.6707 28.8667 22.26C28.0827 21.8307 27.2334 21.616 26.3187 21.616C25.3854 21.616 24.5267 21.8307 23.7427 22.26C22.9774 22.6707 22.3614 23.3053 21.8947 24.164C21.4281 25.0227 21.1947 26.068 21.1947 27.3C21.1947 28.5507 21.4187 29.6053 21.8667 30.464C22.3334 31.3227 22.9494 31.9667 23.7147 32.396C24.4801 32.8067 25.3201 33.012 26.2347 33.012ZM55.9049 19.376C57.0995 19.376 58.1635 19.628 59.0969 20.132C60.0302 20.6173 60.7675 21.3547 61.3089 22.344C61.8502 23.3333 62.1209 24.5373 62.1209 25.956V35H59.6009V26.32C59.6009 24.7893 59.2182 23.6227 58.4529 22.82C57.7062 21.9987 56.6889 21.588 55.4009 21.588C54.0755 21.588 53.0209 22.0173 52.2369 22.876C51.4529 23.716 51.0609 24.9387 51.0609 26.544V35H48.5409V26.32C48.5409 24.7893 48.1582 23.6227 47.3929 22.82C46.6462 21.9987 45.6289 21.588 44.3409 21.588C43.0155 21.588 41.9609 22.0173 41.1769 22.876C40.3929 23.716 40.0009 24.9387 40.0009 26.544V35H37.4529V19.656H40.0009V21.868C40.5049 21.0653 41.1769 20.4493 42.0169 20.02C42.8755 19.5907 43.8182 19.376 44.8449 19.376C46.1329 19.376 47.2715 19.6653 48.2609 20.244C49.2502 20.8227 49.9875 21.672 50.4729 22.792C50.9022 21.7093 51.6115 20.8693 52.6009 20.272C53.5902 19.6747 54.6915 19.376 55.9049 19.376ZM80.3005 26.74C80.3005 27.2253 80.2725 27.7387 80.2165 28.28H67.9525C68.0459 29.792 68.5592 30.9773 69.4925 31.836C70.4445 32.676 71.5925 33.096 72.9365 33.096C74.0379 33.096 74.9525 32.844 75.6805 32.34C76.4272 31.8173 76.9499 31.1267 77.2485 30.268H79.9925C79.5819 31.7427 78.7605 32.9467 77.5285 33.88C76.2965 34.7947 74.7659 35.252 72.9365 35.252C71.4805 35.252 70.1739 34.9253 69.0165 34.272C67.8779 33.6187 66.9819 32.6947 66.3285 31.5C65.6752 30.2867 65.3485 28.8867 65.3485 27.3C65.3485 25.7133 65.6659 24.3227 66.3005 23.128C66.9352 21.9333 67.8219 21.0187 68.9605 20.384C70.1179 19.7307 71.4432 19.404 72.9365 19.404C74.3925 19.404 75.6805 19.7213 76.8005 20.356C77.9205 20.9907 78.7792 21.868 79.3765 22.988C79.9925 24.0893 80.3005 25.34 80.3005 26.74ZM77.6685 26.208C77.6685 25.2373 77.4539 24.4067 77.0245 23.716C76.5952 23.0067 76.0072 22.4747 75.2605 22.12C74.5325 21.7467 73.7205 21.56 72.8245 21.56C71.5365 21.56 70.4352 21.9707 69.5205 22.792C68.6245 23.6133 68.1112 24.752 67.9805 26.208H77.6685Z" fill="#221203"/>
<path d="M81.2678 39.176C81.4278 38.696 81.8918 37.592 82.6598 35.864C83.4598 34.168 84.5158 31.896 85.8278 29.048C87.1718 26.168 88.7558 22.76 90.5798 18.824C92.4038 14.888 94.4358 10.456 96.6758 5.528C96.8038 5.272 96.8998 5 96.9638 4.712C97.0598 4.424 97.1078 4.168 97.1078 3.944C97.1078 3.624 97.0118 3.368 96.8198 3.176C96.6278 2.984 96.2598 2.888 95.7158 2.888C94.3718 2.888 93.2678 3.304 92.4038 4.136C91.5718 4.936 90.9478 5.928 90.5318 7.112C90.1478 8.296 89.9558 9.464 89.9558 10.616C89.9558 10.904 89.9718 11.24 90.0038 11.624C90.0358 12.008 90.0838 12.44 90.1478 12.92C89.3798 12.92 88.7398 12.696 88.2278 12.248C87.7478 11.768 87.3798 11.192 87.1238 10.52C86.8678 9.816 86.7398 9.16 86.7398 8.552C86.7398 7.528 87.0278 6.536 87.6038 5.576C88.2118 4.616 88.9958 3.752 89.9558 2.984C90.9158 2.184 91.9718 1.56 93.1238 1.112C94.3078 0.663999 95.4758 0.439999 96.6278 0.439999C97.8118 0.439999 98.8198 0.775998 99.6518 1.448C100.484 2.088 101.124 3.272 101.572 5C102.02 6.696 102.244 9.144 102.244 12.344C102.244 14.424 102.164 16.536 102.004 18.68C101.876 20.792 101.732 22.776 101.572 24.632C101.412 26.488 101.332 28.072 101.332 29.384C101.972 27.496 102.756 25.496 103.684 23.384C104.644 21.24 105.668 19.128 106.756 17.048C107.844 14.936 108.916 12.952 109.972 11.096C111.028 9.24 111.972 7.624 112.804 6.248C113.668 4.84 114.324 3.8 114.772 3.128C115.22 2.424 115.62 1.896 115.972 1.544C116.324 1.192 116.804 1.016 117.412 1.016C117.86 1.016 118.564 1.192 119.524 1.544C119.236 2.152 118.9 3.128 118.516 4.472C118.132 5.784 117.716 7.32 117.268 9.08C116.788 11 116.308 13.112 115.828 15.416C115.348 17.688 114.916 19.992 114.532 22.328C114.148 24.664 113.828 26.888 113.572 29C113.348 31.08 113.236 32.92 113.236 34.52C113.236 35.352 113.268 36.008 113.332 36.488C113.428 36.968 113.54 37.384 113.668 37.736C113.828 38.12 114.004 38.6 114.196 39.176C112.82 39.176 111.764 38.968 111.028 38.552C110.324 38.136 109.844 37.464 109.588 36.536C109.364 35.64 109.252 34.44 109.252 32.936C109.252 29.384 109.652 25.656 110.452 21.752C111.284 17.816 112.244 13.768 113.332 9.608C112.436 10.888 111.508 12.408 110.548 14.168C109.588 15.928 108.644 17.784 107.716 19.736C106.788 21.688 105.908 23.624 105.076 25.544C104.244 27.432 103.508 29.192 102.868 30.824C102.228 32.424 101.732 33.768 101.38 34.856C101.092 34.952 100.884 35.016 100.756 35.048C100.66 35.08 100.532 35.096 100.372 35.096C99.2518 35.096 98.5318 34.424 98.2118 33.08C97.9238 31.704 97.7798 29.832 97.7798 27.464C97.7798 26.216 97.7958 24.888 97.8278 23.48C97.8598 22.04 97.9078 20.584 97.9718 19.112C98.0358 17.608 98.0838 16.12 98.1158 14.648C98.1478 13.176 98.1638 11.768 98.1638 10.424C98.1638 9.944 98.1478 9.464 98.1158 8.984C98.1158 8.504 98.1158 8.04 98.1158 7.592C95.6838 13.256 93.6198 18.104 91.9238 22.136C90.2598 26.136 88.8358 29.4 87.6518 31.928C86.4678 34.424 85.3798 36.248 84.3878 37.4C83.3958 38.584 82.3558 39.176 81.2678 39.176ZM121.79 37.256C120.734 37.256 119.822 36.904 119.054 36.2C118.254 35.496 117.854 34.44 117.854 33.032C117.854 31.912 118.11 30.696 118.622 29.384C119.134 28.072 119.838 26.776 120.734 25.496C121.63 24.216 122.654 23.064 123.806 22.04C124.958 20.984 126.19 20.136 127.502 19.496C128.814 18.856 130.126 18.536 131.438 18.536C132.814 18.536 133.982 18.888 134.942 19.592C135.902 20.296 136.382 21.224 136.382 22.376C136.382 23.24 136.078 23.864 135.47 24.248C134.862 24.632 134.142 24.744 133.31 24.584C133.374 24.296 133.422 24.008 133.454 23.72C133.518 23.432 133.55 23.128 133.55 22.808C133.55 22.168 133.422 21.592 133.166 21.08C132.91 20.568 132.366 20.312 131.534 20.312C130.638 20.312 129.726 20.616 128.798 21.224C127.87 21.832 126.974 22.632 126.11 23.624C125.278 24.584 124.526 25.656 123.854 26.84C123.182 27.992 122.654 29.128 122.27 30.248C121.886 31.368 121.694 32.376 121.694 33.272C121.694 34.296 122.062 34.808 122.798 34.808C123.534 34.808 124.35 34.456 125.246 33.752C126.142 33.016 127.038 32.104 127.934 31.016C128.862 29.928 129.742 28.824 130.574 27.704C131.406 26.552 132.126 25.576 132.734 24.776C132.83 24.616 132.958 24.536 133.118 24.536C133.246 24.568 133.486 24.648 133.838 24.776C134.222 24.872 134.574 25.032 134.894 25.256C135.214 25.48 135.374 25.768 135.374 26.12C135.374 26.44 135.23 26.856 134.942 27.368C134.686 27.848 134.366 28.392 133.982 29C133.63 29.576 133.31 30.168 133.022 30.776C132.766 31.352 132.638 31.912 132.638 32.456C132.638 32.872 132.75 33.272 132.974 33.656C133.198 34.008 133.566 34.184 134.078 34.184C134.846 34.184 135.918 33.624 137.294 32.504C138.702 31.352 140.126 29.416 141.566 26.696L142.478 27.608C141.71 29.336 140.782 30.872 139.694 32.216C138.638 33.528 137.518 34.552 136.334 35.288C135.15 36.056 133.95 36.44 132.734 36.44C131.422 36.44 130.446 36.024 129.806 35.192C129.166 34.36 128.814 33.464 128.75 32.504C128.75 32.44 128.75 32.392 128.75 32.36C128.75 32.328 128.75 32.296 128.75 32.264C127.47 33.8 126.286 35.016 125.198 35.912C124.142 36.808 123.006 37.256 121.79 37.256ZM143.742 36.44C143.134 36.44 142.51 36.28 141.87 35.96C141.262 35.672 140.75 35.208 140.334 34.568C139.886 33.928 139.662 33.112 139.662 32.12C139.662 31.064 139.918 29.88 140.43 28.568C140.942 27.256 141.63 25.944 142.494 24.632C143.39 23.32 144.414 22.12 145.566 21.032C146.75 19.944 147.998 19.064 149.31 18.392C150.622 17.72 151.95 17.384 153.294 17.384C154.03 17.384 154.606 17.512 155.022 17.768C155.438 17.992 155.646 18.376 155.646 18.92C155.646 19.08 155.614 19.272 155.55 19.496C155.486 19.688 155.326 19.864 155.07 20.024C154.942 19.832 154.718 19.704 154.398 19.64C154.078 19.544 153.742 19.496 153.39 19.496C152.334 19.496 151.326 19.8 150.366 20.408C149.406 20.984 148.526 21.736 147.726 22.664C146.926 23.592 146.222 24.6 145.614 25.688C145.038 26.776 144.59 27.832 144.27 28.856C143.95 29.848 143.79 30.712 143.79 31.448C143.79 32.056 143.918 32.552 144.174 32.936C144.43 33.288 144.814 33.464 145.326 33.464C146.19 33.464 147.214 32.968 148.398 31.976C149.614 30.952 150.846 29.496 152.094 27.608C153.374 25.688 154.526 23.4 155.55 20.744C156.254 18.92 156.99 17.064 157.758 15.176C158.526 13.256 159.294 11.416 160.062 9.656C160.83 7.896 161.582 6.328 162.318 4.952C163.086 3.576 163.806 2.488 164.478 1.688C165.182 0.855999 165.822 0.439999 166.398 0.439999C166.75 0.439999 167.054 0.583999 167.31 0.871999C167.598 1.128 167.742 1.464 167.742 1.88C167.742 2.424 167.47 3.304 166.926 4.52C166.414 5.704 165.742 7.128 164.91 8.792C164.11 10.456 163.23 12.264 162.27 14.216C161.342 16.136 160.462 18.12 159.63 20.168C158.83 22.184 158.158 24.184 157.614 26.168C157.102 28.12 156.846 29.96 156.846 31.688C156.846 32.456 156.91 32.984 157.038 33.272C157.198 33.528 157.454 33.656 157.806 33.656C158.51 33.656 159.294 33.384 160.158 32.84C161.022 32.296 161.902 31.496 162.798 30.44C163.694 29.352 164.51 28.056 165.246 26.552L166.158 27.32C165.454 29.08 164.558 30.632 163.47 31.976C162.382 33.32 161.214 34.36 159.966 35.096C158.718 35.864 157.486 36.248 156.27 36.248C154.958 36.248 154.046 35.832 153.534 35C153.022 34.168 152.766 33.192 152.766 32.072C152.766 31.56 152.798 31.048 152.862 30.536C152.958 29.992 153.054 29.464 153.15 28.952C152.158 30.392 151.102 31.688 149.982 32.84C148.894 33.96 147.822 34.84 146.766 35.48C145.71 36.12 144.702 36.44 143.742 36.44ZM169.576 37.112C167.528 37.112 165.944 36.552 164.824 35.432C163.736 34.344 163.192 32.968 163.192 31.304C163.192 29.896 163.544 28.408 164.248 26.84C164.984 25.24 165.96 23.752 167.176 22.376C168.392 20.968 169.736 19.832 171.208 18.968C172.68 18.104 174.152 17.672 175.624 17.672C176.456 17.672 177.24 17.896 177.976 18.344C178.744 18.76 179.128 19.608 179.128 20.888C179.128 22.104 178.776 23.24 178.072 24.296C177.368 25.352 176.424 26.296 175.24 27.128C174.056 27.96 172.744 28.648 171.304 29.192C169.896 29.704 168.472 30.04 167.032 30.2C167 30.328 166.968 30.472 166.936 30.632C166.936 30.76 166.936 30.984 166.936 31.304C166.936 31.464 166.952 31.752 166.984 32.168C167.048 32.552 167.192 32.968 167.416 33.416C167.64 33.864 168.008 34.248 168.52 34.568C169.032 34.888 169.736 35.048 170.632 35.048C171.976 35.048 173.32 34.68 174.664 33.944C176.04 33.176 177.32 32.168 178.504 30.92C179.72 29.672 180.728 28.28 181.528 26.744L182.488 27.512C181.624 29.432 180.504 31.112 179.128 32.552C177.784 33.992 176.28 35.112 174.616 35.912C172.984 36.712 171.304 37.112 169.576 37.112ZM167.56 28.424C168.392 28.328 169.32 28.04 170.344 27.56C171.368 27.08 172.344 26.472 173.272 25.736C174.232 25 175.016 24.2 175.624 23.336C176.232 22.44 176.536 21.544 176.536 20.648C176.536 20.296 176.472 20.056 176.344 19.928C176.216 19.8 176.008 19.736 175.72 19.736C174.984 19.736 174.216 20.008 173.416 20.552C172.616 21.064 171.832 21.752 171.064 22.616C170.296 23.448 169.608 24.376 169 25.4C168.392 26.424 167.912 27.432 167.56 28.424Z" fill="#FD8F2C"/>
</svg>
