<svg width="84" height="84" viewBox="0 0 84 84" fill="none" xmlns="http://www.w3.org/2000/svg">
<path fill-rule="evenodd" clip-rule="evenodd" d="M42.2081 3C42.2081 2.44772 41.7604 2 41.2081 2C40.6558 2 40.2081 2.44772 40.2081 3V41.6213H3C2.44772 41.6213 2 42.069 2 42.6213C2 43.1736 2.44772 43.6213 3 43.6213H40.2081V80.9987C40.2081 81.551 40.6558 81.9987 41.2081 81.9987C41.7604 81.9987 42.2081 81.551 42.2081 80.9987V43.6213H80.9987C81.551 43.6213 81.9987 43.1736 81.9987 42.6213C81.9987 42.069 81.551 41.6213 80.9987 41.6213H42.2081V3Z" fill="#FD8F2C"/>
<path d="M40.2081 41.6213V43.1213H41.7081V41.6213H40.2081ZM40.2081 43.6213H41.7081V42.1213H40.2081V43.6213ZM42.2081 43.6213V42.1213H40.7081V43.6213H42.2081ZM42.2081 41.6213H40.7081V43.1213H42.2081V41.6213ZM41.2081 3.5C40.9319 3.5 40.7081 3.27614 40.7081 3H43.7081C43.7081 1.61929 42.5888 0.5 41.2081 0.5V3.5ZM41.7081 3C41.7081 3.27614 41.4842 3.5 41.2081 3.5V0.5C39.8274 0.5 38.7081 1.61929 38.7081 3H41.7081ZM41.7081 41.6213V3H38.7081V41.6213H41.7081ZM3 43.1213H40.2081V40.1213H3V43.1213ZM3.5 42.6213C3.5 42.8974 3.27614 43.1213 3 43.1213V40.1213C1.61929 40.1213 0.5 41.2406 0.5 42.6213H3.5ZM3 42.1213C3.27614 42.1213 3.5 42.3451 3.5 42.6213H0.5C0.5 44.002 1.61929 45.1213 3 45.1213V42.1213ZM40.2081 42.1213H3V45.1213H40.2081V42.1213ZM41.7081 80.9987V43.6213H38.7081V80.9987H41.7081ZM41.2081 80.4987C41.4842 80.4987 41.7081 80.7226 41.7081 80.9987H38.7081C38.7081 82.3794 39.8274 83.4987 41.2081 83.4987V80.4987ZM40.7081 80.9987C40.7081 80.7226 40.9319 80.4987 41.2081 80.4987V83.4987C42.5888 83.4987 43.7081 82.3794 43.7081 80.9987H40.7081ZM40.7081 43.6213V80.9987H43.7081V43.6213H40.7081ZM80.9987 42.1213H42.2081V45.1213H80.9987V42.1213ZM80.4987 42.6213C80.4987 42.3451 80.7226 42.1213 80.9987 42.1213V45.1213C82.3794 45.1213 83.4987 44.002 83.4987 42.6213H80.4987ZM80.9987 43.1213C80.7226 43.1213 80.4987 42.8974 80.4987 42.6213H83.4987C83.4987 41.2406 82.3794 40.1213 80.9987 40.1213V43.1213ZM42.2081 43.1213H80.9987V40.1213H42.2081V43.1213ZM40.7081 3V41.6213H43.7081V3H40.7081Z" fill="#FD8F2C"/>
</svg>
