<svg width="32" height="32" viewBox="0 0 32 32" fill="none" xmlns="http://www.w3.org/2000/svg">
<path d="M15.1707 19.3335H25.3334C25.687 19.3335 26.0262 19.193 26.2762 18.943C26.5263 18.6929 26.6667 18.3538 26.6667 18.0002V7.3335C26.6667 6.97987 26.5263 6.64074 26.2762 6.39069C26.0262 6.14064 25.687 6.00016 25.3334 6.00016H6.66675C6.31313 6.00016 5.97399 6.14064 5.72394 6.39069C5.47389 6.64074 5.33341 6.97987 5.33341 7.3335V18.0002C5.33341 18.3538 5.47389 18.6929 5.72394 18.943C5.97399 19.193 6.31313 19.3335 6.66675 19.3335C7.02037 19.3335 7.35951 19.474 7.60956 19.724C7.85961 19.9741 8.00008 20.3132 8.00008 20.6668V24.6842L15.1707 19.3335ZM6.66675 3.3335H25.3334C26.3943 3.3335 27.4117 3.75492 28.1618 4.50507C28.912 5.25521 29.3334 6.27263 29.3334 7.3335V18.0002C29.3334 19.061 28.912 20.0784 28.1618 20.8286C27.4117 21.5787 26.3943 22.0002 25.3334 22.0002H16.0561L7.46408 28.4108C7.2658 28.5588 7.03027 28.6486 6.78383 28.6704C6.5374 28.6921 6.28978 28.6448 6.06867 28.5338C5.84757 28.4229 5.66169 28.2526 5.53184 28.042C5.402 27.8314 5.33329 27.5889 5.33341 27.3415V22.0002C4.62617 22.0002 3.94789 21.7192 3.4478 21.2191C2.9477 20.719 2.66675 20.0407 2.66675 19.3335V7.3335C2.66675 6.27263 3.08818 5.25521 3.83832 4.50507C4.58847 3.75492 5.60588 3.3335 6.66675 3.3335Z" fill="#221203"/>
</svg>
