<svg width="64" height="64" viewBox="0 0 64 64" fill="none" xmlns="http://www.w3.org/2000/svg">
<path d="M31.8303 0C24.957 0 19.5721 1.77428e-07 15.3689 0.565582C11.0705 1.14307 7.67702 2.35163 5.01284 5.01284C2.34865 7.67702 1.14307 11.0705 0.565582 15.3719C1.77428e-07 19.5721 0 24.957 0 31.8303V32.1697C0 39.043 1.77428e-07 44.4279 0.565582 48.6311C1.14307 52.9295 2.35163 56.323 5.01284 58.9872C7.67702 61.6513 11.0705 62.8569 15.3719 63.4344C19.5721 64 24.957 64 31.8303 64H32.1697C39.043 64 44.4279 64 48.6311 63.4344C52.9295 62.8569 56.323 61.6484 58.9872 58.9872C61.6513 56.323 62.8569 52.9295 63.4344 48.6281C64 44.4279 64 39.043 64 32.1697V27.5349C64 26.9428 63.7648 26.3749 63.3461 25.9562C62.9274 25.5375 62.3596 25.3023 61.7674 25.3023C61.1753 25.3023 60.6075 25.5375 60.1888 25.9562C59.7701 26.3749 59.5349 26.9428 59.5349 27.5349V32C59.5349 39.0787 59.5289 44.163 59.011 48.0327C58.499 51.84 57.5226 54.1351 55.8288 55.8318C54.1321 57.5256 51.84 58.499 48.0327 59.011C44.163 59.5289 39.0787 59.5349 32 59.5349C24.9213 59.5349 19.837 59.5289 15.9673 59.011C12.16 58.499 9.86493 57.5226 8.16819 55.8288C6.47442 54.1321 5.50102 51.84 4.98902 48.0327C4.47107 44.163 4.46512 39.0787 4.46512 32C4.46512 24.9213 4.47107 19.837 4.98902 15.9673C5.50102 12.16 6.4774 9.86493 8.17116 8.16819C9.86791 6.47442 12.16 5.50102 15.9673 4.98902C19.837 4.47107 24.9213 4.46512 32 4.46512H36.4651C37.0572 4.46512 37.6251 4.2299 38.0438 3.81122C38.4625 3.39253 38.6977 2.82467 38.6977 2.23256C38.6977 1.64045 38.4625 1.07259 38.0438 0.653901C37.6251 0.235215 37.0572 8.82314e-09 36.4651 0H31.8303Z" fill="white"/>
<path fill-rule="evenodd" clip-rule="evenodd" d="M52.8366 0C49.8761 0 47.0368 1.17608 44.9433 3.26951C42.8499 5.36294 41.6738 8.20223 41.6738 11.1628C41.6738 14.1233 42.8499 16.9626 44.9433 19.0561C47.0368 21.1495 49.8761 22.3256 52.8366 22.3256C55.7972 22.3256 58.6365 21.1495 60.7299 19.0561C62.8233 16.9626 63.9994 14.1233 63.9994 11.1628C63.9994 8.20223 62.8233 5.36294 60.7299 3.26951C58.6365 1.17608 55.7972 0 52.8366 0ZM46.1389 11.1628C46.1389 9.38646 46.8446 7.68288 48.1006 6.42682C49.3567 5.17076 51.0603 4.46512 52.8366 4.46512C54.613 4.46512 56.3165 5.17076 57.5726 6.42682C58.8286 7.68288 59.5343 9.38646 59.5343 11.1628C59.5343 12.9391 58.8286 14.6427 57.5726 15.8988C56.3165 17.1548 54.613 17.8605 52.8366 17.8605C51.0603 17.8605 49.3567 17.1548 48.1006 15.8988C46.8446 14.6427 46.1389 12.9391 46.1389 11.1628Z" fill="white"/>
<path d="M14.8848 37.9533C14.8848 37.3612 15.12 36.7933 15.5387 36.3746C15.9574 35.9559 16.5252 35.7207 17.1173 35.7207H43.908C44.5001 35.7207 45.068 35.9559 45.4867 36.3746C45.9054 36.7933 46.1406 37.3612 46.1406 37.9533C46.1406 38.5454 45.9054 39.1132 45.4867 39.5319C45.068 39.9506 44.5001 40.1858 43.908 40.1858H17.1173C16.5252 40.1858 15.9574 39.9506 15.5387 39.5319C15.12 39.1132 14.8848 38.5454 14.8848 37.9533ZM17.1173 46.1393C16.5252 46.1393 15.9574 46.3745 15.5387 46.7932C15.12 47.2119 14.8848 47.7798 14.8848 48.3719C14.8848 48.964 15.12 49.5318 15.5387 49.9505C15.9574 50.3692 16.5252 50.6044 17.1173 50.6044H34.9778C35.5699 50.6044 36.1378 50.3692 36.5564 49.9505C36.9751 49.5318 37.2103 48.964 37.2103 48.3719C37.2103 47.7798 36.9751 47.2119 36.5564 46.7932C36.1378 46.3745 35.5699 46.1393 34.9778 46.1393H17.1173Z" fill="white"/>
</svg>
