<svg width="28" height="28" viewBox="0 0 28 28" fill="none" xmlns="http://www.w3.org/2000/svg">
<path d="M13.9258 0C10.9187 0 8.56279 7.76247e-08 6.72391 0.247442C4.84335 0.500093 3.3587 1.02884 2.19312 2.19312C1.02753 3.3587 0.500093 4.84335 0.247442 6.72521C7.76247e-08 8.56279 0 10.9187 0 13.9258V14.0742C0 17.0813 7.76247e-08 19.4372 0.247442 21.2761C0.500093 23.1567 1.02884 24.6413 2.19312 25.8069C3.3587 26.9725 4.84335 27.4999 6.72521 27.7526C8.56279 28 10.9187 28 13.9258 28H14.0742C17.0813 28 19.4372 28 21.2761 27.7526C23.1567 27.4999 24.6413 26.9712 25.8069 25.8069C26.9725 24.6413 27.4999 23.1567 27.7526 21.2748C28 19.4372 28 17.0813 28 14.0742V12.0465C28 11.7875 27.8971 11.539 27.7139 11.3559C27.5307 11.1727 27.2823 11.0698 27.0233 11.0698C26.7642 11.0698 26.5158 11.1727 26.3326 11.3559C26.1494 11.539 26.0465 11.7875 26.0465 12.0465V14C26.0465 17.0969 26.0439 19.3213 25.8173 21.0143C25.5933 22.68 25.1661 23.6841 24.4251 24.4264C23.6828 25.1674 22.68 25.5933 21.0143 25.8173C19.3213 26.0439 17.0969 26.0465 14 26.0465C10.9031 26.0465 8.6787 26.0439 6.98567 25.8173C5.32 25.5933 4.31591 25.1661 3.57358 24.4251C2.83256 23.6828 2.4067 22.68 2.1827 21.0143C1.95609 19.3213 1.95349 17.0969 1.95349 14C1.95349 10.9031 1.95609 8.6787 2.1827 6.98567C2.4067 5.32 2.83386 4.31591 3.57488 3.57358C4.31721 2.83256 5.32 2.4067 6.98567 2.1827C8.6787 1.95609 10.9031 1.95349 14 1.95349H15.9535C16.2125 1.95349 16.461 1.85058 16.6441 1.66741C16.8273 1.48423 16.9302 1.23579 16.9302 0.976744C16.9302 0.717696 16.8273 0.469257 16.6441 0.286082C16.461 0.102907 16.2125 3.86013e-09 15.9535 0H13.9258Z" fill="#221203"/>
<path fill-rule="evenodd" clip-rule="evenodd" d="M23.1159 0C21.8207 0 20.5785 0.514533 19.6626 1.43041C18.7467 2.34628 18.2322 3.58848 18.2322 4.88372C18.2322 6.17896 18.7467 7.42116 19.6626 8.33703C20.5785 9.25291 21.8207 9.76744 23.1159 9.76744C24.4111 9.76744 25.6533 9.25291 26.5692 8.33703C27.4851 7.42116 27.9996 6.17896 27.9996 4.88372C27.9996 3.58848 27.4851 2.34628 26.5692 1.43041C25.6533 0.514533 24.4111 0 23.1159 0ZM20.1857 4.88372C20.1857 4.10658 20.4944 3.36126 21.0439 2.81173C21.5934 2.26221 22.3388 1.95349 23.1159 1.95349C23.893 1.95349 24.6384 2.26221 25.1879 2.81173C25.7374 3.36126 26.0461 4.10658 26.0461 4.88372C26.0461 5.66087 25.7374 6.40618 25.1879 6.95571C24.6384 7.50523 23.893 7.81395 23.1159 7.81395C22.3388 7.81395 21.5934 7.50523 21.0439 6.95571C20.4944 6.40618 20.1857 5.66087 20.1857 4.88372Z" fill="#221203"/>
<path d="M6.51196 16.6047C6.51196 16.3456 6.61487 16.0972 6.79804 15.914C6.98122 15.7308 7.22966 15.6279 7.48871 15.6279H19.2096C19.4687 15.6279 19.7171 15.7308 19.9003 15.914C20.0835 16.0972 20.1864 16.3456 20.1864 16.6047C20.1864 16.8637 20.0835 17.1122 19.9003 17.2953C19.7171 17.4785 19.4687 17.5814 19.2096 17.5814H7.48871C7.22966 17.5814 6.98122 17.4785 6.79804 17.2953C6.61487 17.1122 6.51196 16.8637 6.51196 16.6047ZM7.48871 20.1861C7.22966 20.1861 6.98122 20.289 6.79804 20.4722C6.61487 20.6553 6.51196 20.9038 6.51196 21.1628C6.51196 21.4219 6.61487 21.6703 6.79804 21.8535C6.98122 22.0367 7.22966 22.1396 7.48871 22.1396H15.3027C15.5617 22.1396 15.8101 22.0367 15.9933 21.8535C16.1765 21.6703 16.2794 21.4219 16.2794 21.1628C16.2794 20.9038 16.1765 20.6553 15.9933 20.4722C15.8101 20.289 15.5617 20.1861 15.3027 20.1861H7.48871Z" fill="#221203"/>
</svg>
