<svg width="16" height="16" viewBox="0 0 16 16" fill="none" xmlns="http://www.w3.org/2000/svg">
<g clip-path="url(#clip0_63_696)">
<path d="M8 0.5C3.85787 0.5 0.5 3.85787 0.5 8C0.5 12.1421 3.85787 15.5 8 15.5C12.1421 15.5 15.5 12.1421 15.5 8C15.5 3.85787 12.1421 0.5 8 0.5ZM12.5962 12.5962C11.4565 13.7325 9.93462 14.4037 8.32705 14.4792C6.71948 14.5547 5.1414 14.0289 3.90029 13.0044C2.65918 11.9799 1.84396 10.53 1.61346 8.93726C1.38297 7.34451 1.75372 5.723 2.65347 4.38868C3.55323 3.05436 4.91753 2.10281 6.48054 1.71945C8.04355 1.33608 9.6933 1.54837 11.1083 2.31494C12.5234 3.08151 13.6023 4.34744 14.135 5.86608C14.6676 7.38472 14.6158 9.04727 13.9896 10.5298C13.6632 11.3023 13.19 12.0041 12.5962 12.5962Z" fill="#7D7D75"/>
<path d="M4.75002 6.25H6.00002V7.5H4.75002V6.25ZM10 6.25H11.25V7.5H10V6.25ZM10.5716 9.6C10.3781 10.0881 10.0422 10.5065 9.60744 10.8009C9.17271 11.0952 8.65939 11.2517 8.1344 11.25H7.86565C7.34064 11.2517 6.8273 11.0952 6.39256 10.8009C5.95781 10.5066 5.62182 10.0881 5.4284 9.6L5.38843 9.5H4.31152L4.50002 9.97128C4.76908 10.6439 5.23352 11.2205 5.83343 11.6267C6.43333 12.0329 7.14118 12.25 7.86565 12.25H8.1344C8.85887 12.25 9.56672 12.0329 10.1666 11.6267C10.7665 11.2205 11.231 10.6439 11.5 9.97128L11.6885 9.5H10.6115L10.5716 9.6Z" fill="#7D7D75"/>
</g>
<defs>
<clipPath id="clip0_63_696">
<rect width="16" height="16" fill="white"/>
</clipPath>
</defs>
</svg>
